<svg xmlns="http://www.w3.org/2000/svg" width="536" height="536" viewBox="0 0 536 536"><path fill="#020202" d="M413.039 126.977v-86.493h86.494v86.494h-86.494zm73.802-73.802h-61.11v61.11h61.11v-61.11zm-12.196 49.294h-37.567v-37.566h37.567v37.566zm24.418 134.303v12.679h-12.679v-12.679h12.679zm-61.986 61.517h12.679v12.679h-12.679v-12.679zm61.986 24.418v12.679h-12.679v-12.679h12.679zm-110.823-220.238h-12.21v36.159h12.679v12.679h11.739v-12.679h12.679v12.679h-12.209v12.209h12.209v24.418h11.74v-12.209h12.209v-24.418h-12.209v-12.679h24.888v12.679h11.74v-12.679h12.678v12.679h12.209v12.209h-24.418v12.209h-12.209v12.209h-24.419v12.679h-11.739v11.74h23.479v-12.209h12.679v12.209h12.209v-36.628h37.097v12.679h-24.418v23.95h11.739v12.679h-11.739v36.628h-12.679v12.21h37.097v25.358h-37.097v-24.888h-12.209v12.679h-23.95v11.74h-25.358v-37.567h12.679v24.888h11.74v-24.421h12.209v-12.209h-24.419v-12.679h12.209v-11.739h-12.209v-12.209h-24.416v12.209h-11.74v12.209h-12.679v-12.209h-12.679v-24.888h12.679v-24.419h12.209v-36.628h-12.679v-24.419h-11.74v36.159h12.209v12.679h-12.679v-12.209h-11.74v37.097h-12.21v11.74h12.21v37.098h-12.679v-12.209h-11.739v12.209h-24.888v12.209h-12.21v24.419h-12.209v12.209h24.419v-24.888h12.21v-12.209h24.888v12.209h11.74v-12.209h49.307v24.888h-11.74v12.209h12.209v37.097h-12.679v11.74h48.837v-12.209h12.679v24.888h11.74v-12.679h12.679v-12.209h12.679v24.888h-12.679v11.74h12.679v12.679h24.418v12.679h-12.21v24.418h-12.679l.47 36.159h11.739v-12.209h12.679v12.679h-12.21v36.158h12.21v13.148h-37.097v-24.888h12.209v-24.419h-48.837v36.628h24.419v12.679h-24.888v-12.679h-11.74v12.679h-12.679v-12.679h12.209v-11.739h-12.209v-12.679h-11.738v37.097h-12.679v-12.21h-12.209v-37.567h24.419v-60.577h-12.209v-12.209h-24.419v12.209h-12.21v23.949h12.21v12.679h-12.21v11.74h12.21v12.679h-12.679v-12.21h-11.74v12.679h-12.209v11.74h-12.209v12.209h24.418v12.209h11.74v-12.209h12.679v24.888h-73.726v-12.679h23.95v-11.739h-11.74v-12.679h-12.21v12.679h-37.098v-37.098h-12.209v-12.209h-24.419v-37.097h24.419v-12.209h-24.419v-12.209h-11.74v12.679h-12.679v11.74h-12.209v12.209h12.209v-12.209h12.679v37.097h-12.679v11.74h37.098v12.209h12.209v12.679h-24.419v11.739h24.419v12.679h12.209v12.679h-12.678v-12.679h-11.74v12.679h-61.986v-12.679h-12.209v-12.209h12.209v-12.209h12.679v24.418h36.628v-11.739h-24.419v-12.679h12.209v-12.21h-12.209v-12.21h-24.418v12.209h-12.679v-12.679h12.209v-23.95h-12.209v-12.679h12.209v-12.209h12.209v-24.419h-36.158v12.209h12.209v12.679h-12.209v12.209h-24.888v-12.209h-12.21v-12.679h24.419v-12.209h-12.209v-12.679h12.209v-12.209h12.209v-11.74h-12.209v-12.209h-24.419v24.418h-12.679v-36.628h-11.74v-12.679h12.679v12.209h11.739v-12.209h48.838v-12.21h-24.419v-11.74h-12.209v-12.679h-11.739v24.419h-12.679v-24.419h-12.679v-12.209h-12.21v-12.209h-12.209v-12.679h12.209v-11.74h-12.209v-49.776h12.209v-12.209h12.679v12.209h24.418v-12.209h12.679v12.209h11.74v-12.209h12.679v12.679h-12.209v11.739h48.838v12.679h-12.209v24.419h36.628v-12.679h12.209v-11.74h12.21v-12.209h-12.21v-12.679h49.307v12.209h11.74v-23.949h-12.21v-12.209h-11.739v12.209h-12.679v-12.209h-11.74v12.209h-12.679v-12.209h-11.74v12.209h-12.679v11.74h12.679v12.679h-12.679v-12.209h-12.679v-12.209h-11.739v12.209h-12.679v-12.679h12.209v-11.74h-12.209v-37.096h12.209v-12.209h-12.209v-12.678h12.679v-12.21h12.679v12.679h-12.679v11.74h12.209v12.678h36.628v-12.209h-24.888v-37.097h12.679v12.209h12.679v24.888h11.74v-24.888h12.679v12.209h12.209v24.888h11.739v-36.627h-12.209v-12.679h12.679v12.209h24.419v-12.209h25.358v12.679h-24.888v11.74h12.209v12.679h11.74v-12.679h24.418v-12.21h24.888v24.888h24.419v12.209h12.21v-12.209h12.679v49.776h-12.68v-24.888zm61.516 133.833h11.74v-11.27h-11.74v11.27zm-12.209 12.679h11.74v-11.27h-11.74v11.27zm-49.307-48.837h24.418v-12.209h-24.418v12.209zm-12.679 12.679h-11.74v11.74h11.74v-11.74zm49.307 134.772h-11.74v12.209h11.74v-12.209zm37.567 61.047h11.739v-11.739h-11.739v11.739zm-12.679 24.419h11.74v-11.74h-11.74v11.74zm-12.209-48.837h24.419v-24.419h-36.628v12.209h12.209v12.21zm-36.628 73.725h11.739v-12.209h-11.739v12.209zm0-24.888h36.158v-36.158h-36.158v36.158zm-12.209-61.047h11.739v-12.21h-11.739v12.21zm-221.647-282.224h-11.739v36.628h11.739v-36.628zm37.098 12.679h-24.419v23.95h12.209v-12.209h12.209c.001-.001.001-11.741.001-11.741zm61.516 184.08h-12.209v11.74h12.209v-11.74zm24.419 12.209h-24.419v48.368h12.209v-36.628h12.209l.001-11.74zm12.209 24.418h-12.209v11.74h12.209v-11.74zm24.418-61.516h-23.949v12.21h23.949v-12.21zm-23.948 37.098v11.74h11.74v-11.74h-11.74zm73.256-12.209h-12.209v-12.679h12.209v-12.21h-24.419v12.209h-12.209v12.679h-12.209v11.74h48.838v-11.739zm-24.419 24.419v23.949h12.209v-23.949h-12.209zm-12.21 36.158v12.679h24.419v-12.209h-12.679v-12.209h-24.419v-24.418h-11.739v48.837h-24.419v11.74h36.158v-24.419l12.679-.001zm-24.887 98.144v-24.419h12.209v-36.158h-11.739v24.418h-12.209v24.419h-24.888v-12.21h-12.209v23.95h48.836zm-61.048 12.679h12.209v-12.209h-12.209v12.209zm-12.208-37.098h24.418v-11.74h-24.418v11.74zm0-36.627h24.418v12.209h12.209v12.209h24.419v-11.739h-12.209v-12.209h-12.209v-24.888h-24.419v12.209h-12.209v12.209zm11.739-98.145v-12.209h-23.949v12.209h23.949zm-23.949 122.563h11.739v-24.418h-11.739v24.418zm-12.209-48.837h23.949v-24.419h-11.739v12.21h-12.21v12.209zm-49.307 61.046h12.209v-11.74h-12.209v11.74zm-12.209-23.948v11.739h12.209v-11.739h-12.209zm0-49.777h12.679v12.679h23.949v-12.209h-12.209v-12.679h12.679v12.209h11.74v-36.628h24.888v12.209h11.739v-23.949h-12.209v-12.209h-11.74v12.209h-24.419v24.418h-23.949v12.209h-13.148v11.741zm-24.419 0h11.74v-11.74h-11.74v11.74zm-12.21 37.098h11.74v-12.21h-11.74v12.21zm0-36.629v11.74h11.74v-11.74h-11.74zm0-48.837v11.74h24.419v12.209h12.209v-23.949h-36.628zm0-37.567h11.74v-11.74h-11.74v11.74zm0-24.419h11.74v-11.739h-11.74v11.739zm0-24.418h11.74v-11.74h-11.74v11.74zm-49.776-48.838h-11.74v12.209h11.74v-12.209zm24.888 23.949v-23.949h-12.209v12.678h-12.209v12.209h-12.21v11.74h23.949v-12.209h12.679v-.469zm-.47 25.358v-12.209h-11.739v12.209h-12.209v11.74h48.368v-11.74h-24.42zm49.308-37.098h-36.159v24.419h11.74v-12.209h12.679v12.209h11.74v-24.419zm24.418 73.726h-12.209v-48.837h-11.74v36.628h-12.209v12.209h12.209v23.95h12.209v24.888h12.679v12.209h11.739v-12.209h12.209v-11.74h-12.209v-12.679h24.888v12.209h11.74v-36.628h-23.95v12.209h-25.358l.002-12.209zm85.935-85.935h-23.949v12.209h12.209v12.209h11.739l.001-24.418zm.469 24.419v24.888h-24.887v-12.679h12.209v-11.74h-12.209v-12.679h-11.74v12.679h-12.21v37.098h-12.679v-12.679h-11.74v12.679h-12.678v11.27h12.209v12.209h11.74v-12.209h24.888v-12.209h24.888v36.628h12.209v12.679h11.74v-24.419h-12.209v-24.888h37.098v-11.271h-12.679v-12.679h-12.209v-12.679l-11.741.001zm23.95-12.21v-12.209h-11.74v12.209h11.74zm-72.787-49.306h11.74v-11.74h-11.74v11.74zm73.256-61.047h-12.209v12.209h12.209v-12.209zm0 37.097h-12.209v-12.209h-12.209v12.209h-12.679v-12.209h-12.209v-12.209h-11.74v12.209h-12.21v11.74h12.209v12.209h12.209v12.209h11.739v-12.209h12.679v12.209h11.74v-12.209h12.679l.001-11.74zm12.21-12.209h-11.74v11.74h11.74v-11.74zm12.209 48.837h-12.209v-24.419h-12.209v12.209h-12.209v11.74h12.209v24.418h12.209v-12.209h12.209v-11.739zm0 36.628h-24.419v12.209h24.419v-12.209zm12.21-98.144h-11.74v12.209h11.74v-12.209zm0 24.888h-11.74v23.95h11.74v-23.95zm12.208-12.209h-11.739v11.74h11.739v-11.74zm0 61.047h-23.949v24.418h11.74v-12.679h12.209v-11.739zm0 24.418h-11.739v12.209h11.739v-12.209zm0 24.889h-23.949v11.74h23.949v-11.74zm36.629-110.354h-12.21v-12.209h-12.209v-12.679h-11.74v24.418h12.209v12.679h-12.209v23.95h11.74v-12.209h12.209v-12.21h12.21v-11.74zm49.306 318.382h12.679v12.679h-12.679v-12.679zm-24.418-355.48h-12.209v-12.678h24.888v24.888h-12.679v-12.21zm-343.74 73.815v-86.494h86.494v86.494h-86.494zm73.802-73.802h-61.11v61.11h61.11v-61.11zm-11.816 49.294h-37.567v-37.567h37.567v37.567zm-49.307 158.722h12.209v12.679h-12.209v24.888h-12.679v-25.358h12.21v-11.74h-12.21v-12.679h12.679v12.21zm0 73.725h12.679v24.419h11.74v12.679h-12.679v-12.209h-24.419v-12.679h12.679v-12.21zm12.209 61.987h-24.888v-12.679h24.888v12.679zm61.606 12.12v86.494h-86.494v-86.494h86.494zm-73.802 73.802h61.11v-61.11h-61.11v61.11zm11.727-49.764h37.567v37.567h-37.567v-37.567zm307.581-23.95h-12.679v-12.679h12.679v12.679zm0 24.419h-12.679v-12.679h12.679v12.679z"/><path fill="#fff" d="M232.145 195.441h81.138c17.405 0 31.513 14.108 31.513 31.509v81.138c0 17.405-14.108 31.513-31.509 31.513h-81.143c-17.4 0-31.509-14.108-31.509-31.509v-81.142c.002-17.401 14.11-31.509 31.51-31.509z"/><linearGradient id="a" gradientUnits="userSpaceOnUse" x1="71.201" y1="439.565" x2="70.984" y2="439.942" gradientTransform="matrix(366 0 0 366 -25747.5 -160682.5)"><stop offset="0" stop-color="#08A1EF"/><stop offset="1" stop-color="#00C6FF"/></linearGradient><path fill="url(#a)" d="M234.881 202.025h74.266c15.931 0 28.844 12.914 28.844 28.84v74.266c0 15.931-12.914 28.844-28.84 28.844h-74.271c-15.926 0-28.84-12.914-28.84-28.84v-74.271c.001-15.926 12.915-28.839 28.841-28.839z"/><path fill="#fff" d="M326.09 289.385l-1.821 3.114c-.264.449-.713.704-1.236.704h-3.646c-.528 0-.972-.255-1.236-.704l-1.821-3.114c-.264-.449-.264-.963 0-1.412l1.821-3.114c.264-.449.713-.704 1.236-.704h3.646c.528 0 .972.255 1.236.704l1.821 3.114c.264.449.264.959 0 1.412zm-77.548-17.66h-3.646c-.528 0-.972-.255-1.236-.704l-1.821-3.114c-.264-.449-.264-.963 0-1.412l1.821-3.114c.264-.449.713-.704 1.236-.704h3.646c.528 0 .972.255 1.236.704l1.821 3.114c.264.449.264.963 0 1.412l-1.821 3.114c-.259.449-.708.704-1.236.704zm65.228 17.427c-1.495 2.582-4.046 4.051-7.037 4.051h-20.756c-2.991 0-5.538-1.465-7.037-4.051l-4.917-8.484 5.23-8.889 5.731 9.857c.981 1.689 2.657 2.652 4.623 2.652h13.631c1.966 0 3.637-.959 4.623-2.652l6.813-11.713c.985-1.693.985-3.615 0-5.309l-6.813-11.713c-.981-1.689-2.657-2.652-4.623-2.652h-13.628c-1.966 0-3.637.959-4.623 2.652l-20.923 36.251c-1.495 2.582-4.046 4.051-7.037 4.051h-20.751c-2.991 0-5.538-1.465-7.037-4.051l-10.371-17.897c-1.5-2.586-1.5-5.524 0-8.111l10.371-17.897c1.495-2.582 4.046-4.051 7.037-4.051h20.756c2.991 0 5.538 1.465 7.037 4.051l4.957 8.559-5.225 8.797-5.643-9.703c-.981-1.689-2.657-2.652-4.618-2.652h-13.635c-1.966 0-3.637.959-4.618 2.652l-6.813 11.717c-.985 1.693-.985 3.615 0 5.309l6.813 11.713c.981 1.689 2.657 2.652 4.618 2.652h13.63c1.966 0 3.637-.959 4.618-2.652l20.787-36.388c1.495-2.582 4.046-4.051 7.037-4.051h20.756c2.991 0 5.538 1.465 7.037 4.051l10.371 17.897c1.5 2.586 1.5 5.524 0 8.111l-10.371 17.893z"/></svg>